<svg width="133" height="28" viewBox="0 0 133 28" fill="none" xmlns="http://www.w3.org/2000/svg">
<path d="M12.7573 1.52073C12.9038 1.05361 13.5649 1.05361 13.7114 1.52072L16.0958 9.12099C16.1612 9.32946 16.3544 9.47132 16.5728 9.47132L24.325 9.47133C24.8051 9.47133 25.0092 10.0822 24.6256 10.3708L18.3242 15.1126C18.155 15.2399 18.0844 15.4599 18.1477 15.6618L20.5475 23.3113C20.693 23.7751 20.1582 24.1527 19.7698 23.8605L13.535 19.1689C13.357 19.0349 13.1118 19.0349 12.9337 19.1689L6.69897 23.8605C6.3106 24.1527 5.77577 23.7751 5.92126 23.3113L8.32102 15.6618C8.38437 15.4599 8.31371 15.2399 8.14458 15.1126L1.84313 10.3708C1.45951 10.0822 1.66366 9.47133 2.14377 9.47133L9.8959 9.47132C10.1144 9.47132 10.3076 9.32946 10.373 9.12099L12.7573 1.52073Z" fill="#FCD236"/>
<path d="M39.226 1.52073C39.3726 1.05361 40.0337 1.05361 40.1802 1.52072L42.5645 9.12099C42.6299 9.32946 42.8231 9.47132 43.0416 9.47132L50.7937 9.47133C51.2738 9.47133 51.478 10.0822 51.0944 10.3708L44.7929 15.1126C44.6238 15.2399 44.5531 15.4599 44.6165 15.6618L47.0162 23.3113C47.1617 23.7751 46.6269 24.1527 46.2385 23.8605L40.0038 19.1689C39.8257 19.0349 39.5805 19.0349 39.4025 19.1689L33.1677 23.8605C32.7793 24.1527 32.2445 23.7751 32.39 23.3113L34.7898 15.6618C34.8531 15.4599 34.7825 15.2399 34.6133 15.1126L28.3119 10.3708C27.9283 10.0822 28.1324 9.47133 28.6125 9.47133L36.3647 9.47132C36.5831 9.47132 36.7763 9.32946 36.8417 9.12099L39.226 1.52073Z" fill="#FCD236"/>
<path d="M65.6948 1.52073C65.8413 1.05361 66.5024 1.05361 66.6489 1.52072L69.0333 9.12099C69.0987 9.32946 69.2919 9.47132 69.5103 9.47132L77.2625 9.47133C77.7426 9.47133 77.9467 10.0822 77.5631 10.3708L71.2617 15.1126C71.0925 15.2399 71.0219 15.4599 71.0852 15.6618L73.485 23.3113C73.6305 23.7751 73.0957 24.1527 72.7073 23.8605L66.4725 19.1689C66.2945 19.0349 66.0493 19.0349 65.8712 19.1689L59.6365 23.8605C59.2481 24.1527 58.7133 23.7751 58.8588 23.3113L61.2585 15.6618C61.3219 15.4599 61.2512 15.2399 61.0821 15.1126L54.7806 10.3708C54.397 10.0822 54.6012 9.47133 55.0813 9.47133L62.8334 9.47132C63.0519 9.47132 63.2451 9.32946 63.3105 9.12099L65.6948 1.52073Z" fill="#FCD236"/>
<path d="M92.1635 1.52073C92.3101 1.05361 92.9712 1.05361 93.1177 1.52072L95.502 9.12099C95.5674 9.32946 95.7606 9.47132 95.9791 9.47132L103.731 9.47133C104.211 9.47133 104.415 10.0822 104.032 10.3708L97.7304 15.1126C97.5613 15.2399 97.4906 15.4599 97.554 15.6618L99.9537 23.3113C100.099 23.7751 99.5644 24.1527 99.176 23.8605L92.9413 19.1689C92.7632 19.0349 92.518 19.0349 92.34 19.1689L86.1052 23.8605C85.7168 24.1527 85.182 23.7751 85.3275 23.3113L87.7273 15.6618C87.7906 15.4599 87.72 15.2399 87.5508 15.1126L81.2494 10.3708C80.8658 10.0822 81.0699 9.47133 81.55 9.47133L89.3022 9.47132C89.5206 9.47132 89.7138 9.32946 89.7792 9.12099L92.1635 1.52073Z" fill="#FCD236"/>
<path d="M118.632 1.52073C118.779 1.05361 119.44 1.05361 119.586 1.52072L121.971 9.12099C122.036 9.32946 122.229 9.47132 122.448 9.47132L130.2 9.47133C130.68 9.47133 130.884 10.0822 130.501 10.3708L124.199 15.1126C124.03 15.2399 123.959 15.4599 124.023 15.6618L126.422 23.3113C126.568 23.7751 126.033 24.1527 125.645 23.8605L119.41 19.1689C119.232 19.0349 118.987 19.0349 118.809 19.1689L112.574 23.8605C112.186 24.1527 111.651 23.7751 111.796 23.3113L114.196 15.6618C114.259 15.4599 114.189 15.2399 114.02 15.1126L107.718 10.3708C107.335 10.0822 107.539 9.47133 108.019 9.47133L115.771 9.47132C115.989 9.47132 116.183 9.32946 116.248 9.12099L118.632 1.52073Z" fill="#FCD236"/>
</svg>
