<svg width="25" height="19" viewBox="0 0 25 19" fill="none" xmlns="http://www.w3.org/2000/svg">
<path d="M0 1.52421C0 1.17573 0.146329 0.841522 0.406796 0.59511C0.667263 0.348699 1.02053 0.210266 1.38889 0.210266H23.6111C23.9795 0.210266 24.3327 0.348699 24.5932 0.59511C24.8537 0.841522 25 1.17573 25 1.52421C25 1.87268 24.8537 2.20689 24.5932 2.4533C24.3327 2.69971 23.9795 2.83814 23.6111 2.83814H1.38889C1.02053 2.83814 0.667263 2.69971 0.406796 2.4533C0.146329 2.20689 0 1.87268 0 1.52421ZM23.6111 8.0939H1.38889C1.02053 8.0939 0.667263 8.23233 0.406796 8.47874C0.146329 8.72516 0 9.05936 0 9.40784C0 9.75632 0.146329 10.0905 0.406796 10.3369C0.667263 10.5833 1.02053 10.7218 1.38889 10.7218H23.6111C23.9795 10.7218 24.3327 10.5833 24.5932 10.3369C24.8537 10.0905 25 9.75632 25 9.40784C25 9.05936 24.8537 8.72516 24.5932 8.47874C24.3327 8.23233 23.9795 8.0939 23.6111 8.0939ZM23.6111 15.9775H1.38889C1.02053 15.9775 0.667263 16.116 0.406796 16.3624C0.146329 16.6088 0 16.943 0 17.2915C0 17.64 0.146329 17.9742 0.406796 18.2206C0.667263 18.467 1.02053 18.6054 1.38889 18.6054H23.6111C23.9795 18.6054 24.3327 18.467 24.5932 18.2206C24.8537 17.9742 25 17.64 25 17.2915C25 16.943 24.8537 16.6088 24.5932 16.3624C24.3327 16.116 23.9795 15.9775 23.6111 15.9775Z" fill="#333333"/>
</svg>
