<svg width="25" height="25" viewBox="0 0 25 25" fill="none" xmlns="http://www.w3.org/2000/svg">
<path d="M24.6131 22.7451L18.8249 16.97C20.2698 15.1325 21.0531 12.8616 21.0481 10.5241C21.0481 8.44259 20.4309 6.40788 19.2745 4.6772C18.1181 2.94653 16.4744 1.59764 14.5514 0.8011C12.6284 0.00455987 10.5124 -0.203851 8.47091 0.202221C6.42945 0.608294 4.55424 1.61061 3.08243 3.08243C1.61061 4.55424 0.608294 6.42945 0.202221 8.47091C-0.203851 10.5124 0.00455987 12.6284 0.8011 14.5514C1.59764 16.4744 2.94653 18.1181 4.6772 19.2745C6.40788 20.4309 8.44259 21.0481 10.5241 21.0481C12.8616 21.0531 15.1325 20.2698 16.97 18.8249L22.7451 24.6131C22.9928 24.8608 23.3288 25 23.6791 25C24.0294 25 24.3654 24.8608 24.6131 24.6131C24.8608 24.3654 25 24.0294 25 23.6791C25 23.3288 24.8608 22.9928 24.6131 22.7451ZM4.94631 16.1676C3.63981 14.89 2.81708 13.1987 2.61847 11.3821C2.41986 9.56563 2.85769 7.73647 3.85725 6.20675C4.85681 4.67703 6.35618 3.54152 8.09955 2.99395C9.84292 2.44637 11.7223 2.52066 13.417 3.20414C15.1117 3.88762 16.5167 5.13794 17.3924 6.74179C18.2681 8.34563 18.5602 10.2036 18.2188 11.9988C17.8775 13.794 16.9238 15.4151 15.5205 16.5856C14.1173 17.756 12.3513 18.4034 10.5241 18.4171C8.43139 18.4152 6.42512 17.5825 4.94631 16.1018V16.1676Z" fill="#333333"/>
</svg>
