<svg width="766" height="571" viewBox="0 0 766 571" fill="none" xmlns="http://www.w3.org/2000/svg">
<path d="M642.391 490.848C635.082 486.35 627.59 478.717 619.475 475.771" stroke="black" stroke-width="10" stroke-linecap="round"/>
<path d="M616.13 511.056L607 491.52" stroke="black" stroke-width="10" stroke-linecap="round"/>
<path d="M657.543 457.482C655.403 457.655 629.673 461.515 628.691 459.413" stroke="black" stroke-width="10" stroke-linecap="round"/>
<path d="M170.854 46.1881C175.571 53.3576 179.126 63.4455 185.23 69.5494" stroke="black" stroke-width="10" stroke-linecap="round"/>
<path d="M203.2 39V60.5643" stroke="black" stroke-width="10" stroke-linecap="round"/>
<path d="M143 70C145.011 70.7496 169.955 78.1471 169.955 80.4669" stroke="black" stroke-width="10" stroke-linecap="round"/>
<g clip-path="url(#clip0_293_8)">
<path d="M587.906 99.6222C609.138 128.741 660.613 293.684 593.778 411.045C526.943 528.406 354.205 511.63 302.537 498.116C250.868 484.603 189.966 434.37 160.337 393.734C130.708 353.098 121.19 221.655 184.28 163.9C247.37 106.145 265.201 69.5546 402.549 54.4406C539.897 39.3267 581.325 90.5923 587.906 99.6222Z" fill="#E1DAC8"/>
<path opacity="0.3" d="M516.476 378.288C516.827 377.507 516.876 376.781 516.722 376.153C555.543 319.751 566.204 242.139 535.799 179.593C518.785 144.599 489.455 123.864 452.243 114.288C419.51 105.86 383.987 102.876 350.957 111.415C279.81 129.822 241.758 210.57 236.895 278.934C231.917 348.989 266.841 419.794 332.106 449.792C401.358 481.618 485.645 447.099 516.476 378.288ZM243.763 300.619C242.448 267.373 250.066 234.026 263.736 203.826C278.445 171.329 300.108 139.73 333.689 124.971C362.188 112.446 394.71 111.599 425.092 116.12C460.895 121.448 496.442 133.643 518.317 164.184C564.685 228.917 549.753 324.291 502.17 383.585C500.672 385.456 501.511 387.444 503.078 388.459C473.308 438.796 410.122 466.688 353.013 449.876C287.993 430.734 246.366 366.545 243.763 300.619Z" fill="white"/>
<path d="M246.209 308.544L260.561 309.975C260.561 309.975 271.492 283.012 281.237 283.135C290.983 283.266 363.278 302.85 359.584 312.968C355.89 323.087 347.912 327.046 326.797 319.312C305.673 311.578 306.414 324.463 312.762 327.937C319.11 331.411 351.161 342.001 346.359 355.154C341.557 368.307 301.903 345.756 301.608 352.531C301.312 359.306 339.196 377.76 334.177 388.543C329.157 399.318 256.345 369.218 252.061 363.06C247.778 356.901 250.587 337.288 250.362 334.912C250.145 332.541 213.911 323.478 246.209 308.544Z" fill="white"/>
<path d="M250.388 299.068C250.402 293.039 45.459 213.499 37.6902 219.869C29.9228 226.247 24.1003 245.18 23.901 251.693C23.7016 258.207 225.953 336.207 231.176 336.806C236.399 337.406 250.327 320.119 250.388 299.068Z" fill="#5B4536"/>
<path d="M522.477 227.609C522.477 227.609 507.72 240.571 508.574 241.65C509.435 242.726 523.874 262.946 498.686 290.108C473.5 317.277 438.177 329.612 410.529 297.017C382.88 264.422 430.266 223.664 451.73 216.489C482.107 206.334 493.974 223.321 497.035 220.872C500.111 218.427 521.123 202.823 522.477 227.609Z" fill="white"/>
<path d="M523.593 241.203C528.723 244.353 703.098 110.508 701.701 100.544C700.303 90.5798 687.165 75.75 681.714 72.1868C676.264 68.6237 504.605 200.967 501.381 205.125C498.157 209.29 505.674 230.193 523.593 241.203Z" fill="#966B3C"/>
</g>
<defs>
<clipPath id="clip0_293_8">
<rect width="694" height="451" fill="white" transform="translate(0.824829 126.751) rotate(-10.4609)"/>
</clipPath>
</defs>
</svg>
