<svg width="795" height="630" viewBox="0 0 795 630" fill="none" xmlns="http://www.w3.org/2000/svg">
<path d="M592.259 580.477C586.41 574.197 581.218 564.845 574.18 559.848" stroke="black" stroke-width="10" stroke-linecap="round"/>
<path d="M561.57 592.971L557.965 571.71" stroke="black" stroke-width="10" stroke-linecap="round"/>
<path d="M615.74 552.344C613.632 551.941 587.803 548.817 587.415 546.53" stroke="black" stroke-width="10" stroke-linecap="round"/>
<path d="M255.991 26.4072C258.631 34.5731 259.375 45.2433 263.636 52.751" stroke="black" stroke-width="10" stroke-linecap="round"/>
<path d="M289.084 28.0823L283.348 48.8696" stroke="black" stroke-width="10" stroke-linecap="round"/>
<path d="M222.807 41.952C224.546 43.2096 246.624 56.9758 246.007 59.212" stroke="black" stroke-width="10" stroke-linecap="round"/>
<path d="M665.578 242.728C671.298 278.309 642.387 448.662 529.602 522.96C416.818 597.257 270.465 503.98 230.54 468.508C190.616 433.035 159.112 360.648 151.129 310.995C143.147 261.342 194.264 139.872 276.683 117.002C359.102 94.1325 391.586 69.6049 520.857 118.412C650.127 167.219 663.806 231.696 665.578 242.728Z" fill="#E1DAC8"/>
<path opacity="0.3" d="M475.892 453.724C476.56 453.186 476.932 452.561 477.08 451.932C537.255 419.264 581.949 354.923 583.209 285.389C583.912 246.486 567.173 214.706 538.348 189.297C512.994 166.943 482.686 148.176 449.375 140.811C377.616 124.957 307.087 179.672 271.754 238.399C235.552 298.582 234.575 377.526 279.143 433.856C326.436 493.622 417.212 501.074 475.892 453.724ZM268.043 260.842C281.946 230.614 303.856 204.346 329.734 183.628C357.579 161.332 391.215 142.991 427.837 145.062C458.917 146.822 488.288 160.813 513.317 178.619C542.812 199.602 568.966 226.589 574.615 263.729C586.59 342.45 530.035 420.685 460.74 451.957C458.556 452.946 458.403 455.099 459.339 456.714C409.981 488.08 341.017 484.289 297.739 443.411C248.467 396.867 240.47 320.781 268.043 260.842Z" fill="white"/>
<path d="M266.63 269.014L278.773 276.797C278.773 276.797 300.741 257.721 309.371 262.25C317.998 266.785 373.554 317.021 365.673 324.365C357.793 331.708 348.887 331.62 333.574 315.152C318.254 298.681 313.072 310.501 317.154 316.476C321.237 322.45 345.002 346.422 334.758 355.968C324.514 365.514 299.397 327.434 296.061 333.338C292.725 339.243 318.123 372.869 308.761 380.203C299.401 387.531 248.152 327.688 247.127 320.257C246.101 312.825 257.498 296.618 258.375 294.398C259.257 292.187 231.071 267.68 266.63 269.014Z" fill="white"/>
<path d="M274.65 262.463C277.397 257.096 130.799 93.2753 120.986 95.4302C111.172 97.5923 97.3972 111.827 94.2661 117.542C91.1351 123.257 236.032 284.485 240.416 287.387C244.799 290.29 265.052 281.198 274.65 262.463Z" fill="#5B4536"/>
<path d="M549.563 322.146C549.563 322.146 530.533 327.007 530.805 328.356C531.085 329.706 534.785 354.274 500.02 367.063C465.253 379.859 428.177 374.836 418.313 333.247C408.449 291.659 469.165 276.818 491.549 280.156C523.228 284.878 526.104 305.4 529.942 304.604C533.792 303.821 559.596 299.44 549.563 322.146Z" fill="white"/>
<path d="M544.394 334.768C547.538 339.901 763.647 299.674 766.919 290.159C770.191 280.644 765.206 261.469 761.964 255.822C758.721 250.175 545.715 290.297 540.955 292.54C536.194 294.791 533.415 316.83 544.394 334.768Z" fill="#966B3C"/>
</svg>
